<svg width="21" height="220" viewBox="0 0 21 220" fill="none" xmlns="http://www.w3.org/2000/svg">
<path d="M7.27 192.38L13.14 194.38L7.27 196.38V198.12L15.2 195.26V193.54L7.27 190.69V192.38ZM7.27 189.88H15.2V188.26H7.27V189.88ZM14.11 179.55H11V183.02H12.33V181.17H13.33C13.5263 181.442 13.6875 181.738 13.81 182.05C13.9332 182.369 14.0009 182.708 14.01 183.05C14.0177 183.361 13.9593 183.669 13.8386 183.955C13.7179 184.242 13.5377 184.499 13.31 184.71C12.7009 185.165 11.9482 185.385 11.19 185.33C10.4692 185.396 9.75138 185.177 9.19 184.72C8.96306 184.503 8.78503 184.24 8.66777 183.948C8.55051 183.657 8.49673 183.344 8.51 183.03C8.50057 182.618 8.62707 182.213 8.87 181.88C9.08637 181.564 9.40949 181.337 9.78 181.24L9.49 179.64C8.80591 179.783 8.19563 180.166 7.77 180.72C7.32712 181.406 7.11031 182.214 7.15 183.03C7.12918 183.691 7.26992 184.346 7.56 184.94C7.87084 185.589 8.37353 186.126 9 186.48C9.67432 186.836 10.4278 187.015 11.19 187C11.9206 187.013 12.6439 186.852 13.3 186.53C13.9312 186.237 14.4555 185.755 14.8 185.15C15.1599 184.477 15.339 183.723 15.32 182.96C15.323 182.277 15.201 181.599 14.96 180.96C14.7732 180.438 14.4842 179.959 14.11 179.55ZM7.27 178.09H15.2V176.49H7.27V178.09ZM7.33 173.29V174.9H15.2V169.26H13.86V173.26L7.33 173.29ZM7.27 165.85L15.2 168.95V167.26L13.4 166.6V163.43L15.2 162.72V160.98L7.27 164.17V165.85ZM12.07 163.91V166.09L9.07 165L12.07 163.91ZM15.2 157.05C15.2099 156.572 15.1561 156.094 15.04 155.63C14.9216 155.205 14.6981 154.816 14.39 154.5C14.0045 154.103 13.5271 153.808 13 153.64C12.4533 153.469 11.8826 153.388 11.31 153.4C10.6765 153.381 10.0444 153.469 9.44 153.66C8.96096 153.814 8.5209 154.07 8.15 154.41C7.80569 154.745 7.55714 155.167 7.43 155.63C7.29917 156.122 7.2452 156.631 7.27 157.14V160.08H15.2V157.05ZM13.86 158.47H8.62V157.75C8.60033 157.305 8.62377 156.86 8.69 156.42C8.74304 156.144 8.87105 155.888 9.06 155.68C9.27595 155.471 9.54065 155.32 9.83 155.24C10.2905 155.104 10.7705 155.047 11.25 155.07C11.7392 155.052 12.2282 155.11 12.7 155.24C12.9854 155.306 13.2478 155.448 13.46 155.65C13.6285 155.83 13.7398 156.056 13.78 156.3C13.8506 156.628 13.8775 156.965 13.86 157.3V158.47ZM11.25 144.63C10.1576 144.558 9.08046 144.917 8.25 145.63C7.88098 146 7.5927 146.443 7.40336 146.93C7.21403 147.417 7.12776 147.938 7.15 148.46C7.11313 149.076 7.21923 149.692 7.46 150.26C7.62234 150.638 7.8606 150.978 8.16 151.26C8.4764 151.567 8.84567 151.814 9.25 151.99C9.88219 152.257 10.5639 152.387 11.25 152.37C11.796 152.408 12.3439 152.333 12.8599 152.151C13.3759 151.969 13.8491 151.683 14.25 151.31C14.62 150.939 14.9082 150.495 15.0959 150.005C15.2836 149.516 15.3668 148.993 15.34 148.47C15.3628 147.955 15.2777 147.44 15.09 146.96C14.9022 146.479 14.6161 146.043 14.25 145.68C13.8466 145.312 13.3729 145.029 12.8573 144.848C12.3417 144.668 11.795 144.594 11.25 144.63ZM13.25 150.06C12.6867 150.516 11.9732 150.744 11.25 150.7C10.5103 150.755 9.77641 150.534 9.19 150.08C8.97394 149.875 8.80185 149.629 8.68425 149.355C8.56664 149.082 8.50599 148.788 8.50599 148.49C8.50599 148.192 8.56664 147.898 8.68425 147.625C8.80185 147.351 8.97394 147.105 9.19 146.9C9.75624 146.452 10.4703 146.235 11.19 146.29C11.9351 146.227 12.6769 146.445 13.27 146.9C13.4882 147.101 13.6623 147.346 13.7813 147.618C13.9004 147.89 13.9619 148.183 13.9619 148.48C13.9619 148.777 13.9004 149.07 13.7813 149.342C13.6623 149.614 13.4882 149.859 13.27 150.06H13.25ZM2 200.85H3.72V141.79H2V200.85ZM17.48 99.43C17.3528 99.2526 17.1974 99.0972 17.02 98.97C16.7952 98.8181 16.5492 98.7001 16.29 98.62C15.9652 98.5251 15.6284 98.4779 15.29 98.48C14.8812 98.4737 14.4747 98.5415 14.09 98.68C13.7569 98.8084 13.4613 99.0182 13.23 99.29C13.0459 99.4961 12.9214 99.7485 12.87 100.02C12.8097 100.323 12.7829 100.631 12.79 100.94V102.68H17.79V100.85C17.7967 100.574 17.7698 100.299 17.71 100.03C17.6568 99.8218 17.5796 99.6204 17.48 99.43ZM17.22 102H13.38V100.94C13.3614 100.65 13.3918 100.36 13.47 100.08C13.5949 99.8134 13.7969 99.5904 14.05 99.44C14.419 99.2462 14.8338 99.1563 15.25 99.18C15.5892 99.1631 15.9285 99.2106 16.25 99.32C16.4946 99.3788 16.717 99.5073 16.89 99.69C17.0172 99.8126 17.1073 99.9686 17.15 100.14C17.229 100.399 17.2628 100.67 17.25 100.94L17.22 102ZM17.22 96.88H15.49V94.08H14.91V96.88H13.38V93.88H12.77V97.55H17.77V93.76H17.18L17.22 96.88ZM16.22 86.58L16.06 87.25C16.4451 87.3107 16.798 87.5013 17.06 87.79C17.2897 88.0712 17.4073 88.4274 17.39 88.79C17.3922 89.0873 17.3089 89.3788 17.15 89.63C16.9883 89.9126 16.7286 90.1261 16.42 90.23C16.0627 90.366 15.6822 90.4306 15.3 90.42C14.9768 90.4182 14.656 90.3642 14.35 90.26C14.0435 90.1591 13.7749 89.9673 13.58 89.71C13.3917 89.4117 13.3008 89.0623 13.32 88.71C13.3061 88.4067 13.3941 88.1075 13.57 87.86C13.7709 87.6065 14.0478 87.4243 14.36 87.34L14.21 86.68C13.78 86.7933 13.3999 87.0466 13.13 87.4C12.8619 87.7718 12.7247 88.2219 12.74 88.68C12.7307 89.1104 12.8378 89.5354 13.05 89.91C13.2466 90.2873 13.5584 90.5921 13.94 90.78C14.3626 90.9879 14.8291 91.0908 15.3 91.08C15.7661 91.0845 16.2284 90.9961 16.66 90.82C17.0646 90.6622 17.4128 90.3871 17.66 90.03C17.8898 89.6257 18.0007 89.1646 17.98 88.7C17.9963 88.2186 17.8482 87.746 17.56 87.36C17.2145 86.9507 16.7371 86.6749 16.21 86.58H16.22ZM16.69 81.43C16.2643 81.2197 15.7948 81.1135 15.32 81.12C14.8514 81.11 14.3865 81.2057 13.96 81.4C13.5687 81.5955 13.2371 81.8925 13 82.26C12.776 82.6416 12.6617 83.0776 12.67 83.52C12.6591 83.8455 12.7187 84.1695 12.8447 84.4698C12.9707 84.7702 13.1601 85.0397 13.4 85.26C13.6717 85.4997 13.9886 85.6825 14.3321 85.7975C14.6757 85.9126 15.0388 85.9577 15.4 85.93C15.8395 85.9275 16.273 85.8285 16.67 85.64C17.0569 85.4544 17.3804 85.1587 17.6 84.79C17.8308 84.4072 17.9487 83.9669 17.94 83.52C17.9471 83.0854 17.8365 82.6569 17.62 82.28C17.4032 81.9054 17.0745 81.6081 16.68 81.43H16.69ZM16.82 84.77C16.4248 85.1202 15.9072 85.3 15.38 85.27C15.0879 85.2997 14.7929 85.2698 14.5127 85.1821C14.2325 85.0945 13.9731 84.9509 13.75 84.76C13.5947 84.5959 13.4733 84.4028 13.3926 84.1918C13.312 83.9807 13.2737 83.7559 13.28 83.53C13.2749 83.2122 13.3617 82.8997 13.53 82.63C13.6979 82.3619 13.9415 82.1497 14.23 82.02C14.568 81.8758 14.9326 81.8042 15.3 81.81C15.8473 81.7757 16.3871 81.9509 16.81 82.3C16.9848 82.4571 17.1236 82.6501 17.2168 82.8659C17.31 83.0817 17.3554 83.315 17.35 83.55C17.3537 83.7803 17.3074 84.0087 17.2142 84.2194C17.1209 84.43 16.983 84.6179 16.81 84.77H16.82ZM17.82 77.11H17.23V79.61H12.77V80.26H17.77L17.82 77.11ZM16.69 71.98C16.2663 71.764 15.7954 71.6574 15.32 71.67C14.8489 71.6568 14.3818 71.7599 13.96 71.97C13.5727 72.1598 13.2494 72.4587 13.03 72.83C12.8025 73.2101 12.688 73.6472 12.7 74.09C12.6818 74.4146 12.7361 74.7391 12.8589 75.04C12.9817 75.341 13.1699 75.6109 13.41 75.83C13.6791 76.0747 13.9952 76.2621 14.339 76.3807C14.6829 76.4994 15.0473 76.5467 15.41 76.52C15.8501 76.5231 16.2849 76.4237 16.68 76.23C17.0669 76.0444 17.3904 75.7487 17.61 75.38C17.8425 74.9906 17.9603 74.5435 17.95 74.09C17.9529 73.6591 17.8426 73.2349 17.63 72.86C17.4098 72.4772 17.0785 72.1703 16.68 71.98H16.69ZM16.82 75.33C16.4248 75.6802 15.9072 75.86 15.38 75.83C15.0881 75.8574 14.7936 75.8264 14.5137 75.7388C14.2339 75.6513 13.9743 75.5089 13.75 75.32C13.4383 74.9874 13.2695 74.5458 13.28 74.09C13.2776 73.7663 13.3641 73.448 13.53 73.17C13.7069 72.9123 13.9483 72.7055 14.23 72.57C14.5695 72.4306 14.933 72.3592 15.3 72.36C15.8479 72.3205 16.3896 72.4964 16.81 72.85C16.9795 73.009 17.1147 73.2011 17.207 73.4144C17.2994 73.6276 17.3471 73.8576 17.3471 74.09C17.3471 74.3224 17.2994 74.5524 17.207 74.7657C17.1147 74.979 16.9795 75.171 16.81 75.33H16.82ZM17.82 70.17H13.53L17.81 68.72V68.11L13.6 66.64H17.81V65.99H12.81V66.89L16.32 68.11L17.14 68.38L16.38 68.62L12.81 69.82V70.82H17.81L17.82 70.17ZM17.82 63C17.8277 62.7277 17.8008 62.4555 17.74 62.19C17.6953 61.9884 17.6103 61.7979 17.49 61.63C17.1983 61.3094 16.7927 61.1156 16.36 61.09C16.0819 61.0925 15.8132 61.1914 15.6 61.37C15.3714 61.5398 15.2088 61.7837 15.14 62.06C15.0695 61.9039 14.9662 61.7649 14.8371 61.6525C14.708 61.54 14.5562 61.4567 14.3919 61.4083C14.2277 61.3599 14.055 61.3475 13.8855 61.3719C13.716 61.3964 13.5538 61.4571 13.41 61.55C13.2048 61.6884 13.0393 61.878 12.93 62.1C12.8235 62.4017 12.7726 62.7202 12.78 63.04V64.94H17.78L17.82 63ZM14.89 64.26H13.38V63.26C13.3652 62.9985 13.3853 62.7361 13.44 62.48C13.4852 62.3376 13.5767 62.2144 13.7 62.13C13.8371 62.0529 13.9928 62.0148 14.15 62.02C14.3038 62.0142 14.4552 62.0599 14.58 62.15C14.7039 62.2468 14.7947 62.3795 14.84 62.53C14.8837 62.737 14.9005 62.9488 14.89 63.16V64.26ZM17.22 64.26H15.48V63.07C15.4677 62.8193 15.5016 62.5685 15.58 62.33C15.6244 62.1683 15.7279 62.0291 15.87 61.94C16.0049 61.8295 16.1758 61.7726 16.35 61.78C16.4996 61.7749 16.648 61.8094 16.78 61.88C16.8953 61.9395 16.9922 62.0294 17.06 62.14C17.1261 62.2587 17.1733 62.3869 17.2 62.52C17.2079 62.6733 17.2079 62.8267 17.2 62.98L17.22 64.26ZM17.81 59.39H12.81V60.05H17.81V59.39ZM17.81 58.05L16.29 57.49V55.37L17.81 54.77V54.02L12.81 56.08V56.81L17.81 58.75V58.05ZM15.75 57.3L14.27 56.73C13.9437 56.6182 13.6094 56.5314 13.27 56.47C13.54 56.39 13.89 56.26 14.27 56.1L15.66 55.57L15.75 57.3ZM7.53 133.68C7.64773 133.592 7.79334 133.549 7.94 133.56C8.09325 133.558 8.24332 133.604 8.37 133.69C8.50673 133.812 8.61583 133.962 8.69 134.13C8.76347 134.352 8.79732 134.586 8.79 134.82C8.79132 135.084 8.74034 135.346 8.64 135.59C8.56406 135.793 8.42797 135.967 8.25 136.09C8.06022 136.21 7.84396 136.282 7.62 136.3V136.93C7.94296 136.934 8.25966 136.841 8.52894 136.662C8.79823 136.484 9.00765 136.229 9.13 135.93C9.28788 135.561 9.36298 135.161 9.35 134.76C9.35691 134.415 9.28509 134.073 9.14 133.76C9.02444 133.491 8.83337 133.262 8.59 133.1C8.36393 132.952 8.10014 132.872 7.83 132.87C7.5745 132.867 7.32391 132.94 7.11 133.08C6.887 133.249 6.71136 133.473 6.6 133.73C6.46137 134.097 6.35431 134.475 6.28 134.86C6.22047 135.212 6.09856 135.551 5.92 135.86C5.86163 135.92 5.79147 135.967 5.71398 135.997C5.6365 136.028 5.5534 136.043 5.47 136.04C5.36611 136.041 5.26342 136.018 5.16981 135.973C5.0762 135.928 4.99417 135.862 4.93 135.78C4.76372 135.51 4.6835 135.196 4.7 134.88C4.67679 134.563 4.77312 134.249 4.97 134C5.05577 133.894 5.16374 133.807 5.28636 133.747C5.40899 133.686 5.54332 133.653 5.68 133.65V133C5.40184 133.009 5.13177 133.096 4.9 133.25C4.64916 133.406 4.45872 133.642 4.36 133.92C4.12661 134.539 4.12661 135.221 4.36 135.84C4.46326 136.096 4.63654 136.318 4.86 136.48C5.07665 136.623 5.33041 136.699 5.59 136.7C5.80524 136.703 6.01566 136.636 6.19 136.51C6.4015 136.38 6.57153 136.193 6.68 135.97C6.82172 135.65 6.92575 135.314 6.99 134.97C7.05191 134.668 7.13545 134.37 7.24 134.08C7.30169 133.925 7.4014 133.787 7.53 133.68ZM8.15 131.18C7.8279 131.286 7.48856 131.33 7.15 131.31H4.27V131.98H7.18C7.60444 131.988 8.02718 131.924 8.43 131.79C8.74097 131.663 8.9963 131.429 9.15 131.13C9.32412 130.769 9.40981 130.371 9.4 129.97C9.41832 129.553 9.31403 129.139 9.1 128.78C8.94021 128.499 8.68994 128.281 8.39 128.16C7.99888 128.037 7.58997 127.979 7.18 127.99H4.27V128.66H7.17C7.62462 128.606 8.08331 128.72 8.46 128.98C8.57872 129.116 8.66905 129.275 8.72571 129.447C8.78238 129.618 8.80423 129.8 8.79 129.98C8.79275 130.237 8.73449 130.49 8.62 130.72C8.52615 130.927 8.35853 131.091 8.15 131.18ZM4.27 126.88H9.27V126.26H7.27V124.96C7.30113 124.696 7.27914 124.427 7.2053 124.172C7.13146 123.916 7.00726 123.677 6.84 123.47C6.60427 123.232 6.29995 123.075 5.96987 123.019C5.63979 122.963 5.30058 123.013 5 123.16C4.80459 123.248 4.63567 123.386 4.51 123.56C4.38273 123.745 4.30054 123.957 4.27 124.18C4.25171 124.436 4.25171 124.694 4.27 124.95V126.88ZM4.85 124.88C4.82595 124.671 4.82595 124.459 4.85 124.25C4.90091 124.078 5.00617 123.927 5.15 123.82C5.31202 123.72 5.49938 123.667 5.69 123.67C5.81553 123.66 5.94164 123.679 6.05924 123.724C6.17684 123.768 6.28299 123.839 6.37 123.93C6.55878 124.201 6.64394 124.531 6.61 124.86V126.26H4.85V124.88ZM4.27 122.11H9.27V118.32H8.71V121.44H7V118.64H6.4V121.44H4.85V118.44H4.27V122.11ZM4.27 117.38H9.27V116.71H7.06V115.94C7.05015 115.817 7.05015 115.693 7.06 115.57C7.08862 115.459 7.13597 115.355 7.2 115.26C7.29061 115.129 7.4021 115.014 7.53 114.92C7.7 114.8 7.93 114.63 8.23 114.44L9.23 113.76V112.92L7.87 113.8C7.62055 113.953 7.39483 114.142 7.2 114.36C7.09539 114.479 7.01094 114.614 6.95 114.76C6.91535 114.356 6.74634 113.976 6.47 113.68C6.35086 113.565 6.20965 113.476 6.05493 113.418C5.90021 113.359 5.73523 113.333 5.57 113.34C5.30345 113.338 5.04124 113.407 4.81 113.54C4.59381 113.67 4.42544 113.867 4.33 114.1C4.2329 114.424 4.189 114.762 4.2 115.1L4.27 117.38ZM4.82 115.11C4.79383 114.818 4.87566 114.526 5.05 114.29C5.11981 114.201 5.20975 114.131 5.31235 114.084C5.41496 114.037 5.52728 114.015 5.64 114.02C5.80353 114.022 5.9631 114.071 6.1 114.16C6.23544 114.258 6.33961 114.394 6.4 114.55C6.47216 114.783 6.50263 115.027 6.49 115.27V116.71H4.82V115.11ZM4.27 112.17H9.27V111.5H4.27V112.17ZM4.27 110.32H9.27V109.68H5.35L9.35 107.01V106.33H4.35V106.98H8.35L4.35 109.63L4.27 110.32ZM4.27 105.58H4.85V103.92H9.3V103.26H4.85V101.58H4.27V105.58ZM4.27 100.86H9.27V97.08H8.71V100.26H7V97.46H6.4V100.26H4.85V97.26H4.27V100.86ZM4.27 96.17H9.27V95.52H5.35L9.35 92.86V92.16H4.35V92.81H8.35L4.35 95.47L4.27 96.17ZM4.27 91.04H9.27V89.26C9.27424 88.9883 9.25078 88.7169 9.2 88.45C9.14551 88.2376 9.05776 88.0351 8.94 87.85C8.81129 87.6743 8.65999 87.5162 8.49 87.38C8.25795 87.2282 8.0054 87.1104 7.74 87.03C7.4139 86.9426 7.07762 86.8989 6.74 86.9C6.33121 86.8938 5.92467 86.9616 5.54 87.1C5.20507 87.22 4.9082 87.4271 4.68 87.7C4.50353 87.915 4.3802 88.1685 4.32 88.44C4.2593 88.7393 4.23579 89.045 4.25 89.35L4.27 91.04ZM4.85 89.31C4.83979 89.0153 4.88038 88.721 4.97 88.44C5.0764 88.171 5.2701 87.9456 5.52 87.8C5.90041 87.6078 6.32436 87.5182 6.75 87.54C7.089 87.527 7.42761 87.5744 7.75 87.68C7.98026 87.7586 8.19148 87.8847 8.37 88.05C8.49704 88.1783 8.58987 88.3365 8.64 88.51C8.71429 88.763 8.74473 89.0268 8.73 89.29V90.38H4.85V89.31ZM4.27 85.91H9.27V82.16H8.71V85.26H7V82.46H6.4V85.26H4.85V82.26H4.27V85.91ZM4.27 81.21H9.27V80.57H5.35L9.35 77.9V77.26H4.35V77.89H8.35L4.35 80.55L4.27 81.21ZM5.37 75.98C5.79872 76.1918 6.27187 76.2982 6.75 76.29C7.21252 76.2909 7.67088 76.2026 8.1 76.03C8.5052 75.8733 8.8537 75.5979 9.1 75.24C9.34015 74.8354 9.45822 74.3701 9.44 73.9C9.45126 73.4284 9.29541 72.9679 9 72.6C8.69098 72.2064 8.25099 71.9367 7.76 71.84L7.59 72.51C7.97793 72.5553 8.33476 72.7444 8.59 73.04C8.82033 73.2978 8.94215 73.6345 8.93 73.98C8.93033 74.2892 8.83993 74.5917 8.67 74.85C8.50696 75.1192 8.25625 75.3239 7.96 75.43C7.60271 75.566 7.22217 75.6306 6.84 75.62C6.50018 75.6215 6.1624 75.5675 5.84 75.46C5.53463 75.3675 5.27002 75.1735 5.09 74.91C4.88524 74.618 4.78324 74.2663 4.8 73.91C4.79276 73.6092 4.88406 73.3142 5.06 73.07C5.26642 72.8222 5.54678 72.647 5.86 72.57L5.71 71.91C5.2791 72.0155 4.8977 72.2662 4.63 72.62C4.36324 72.9924 4.22621 73.4421 4.24 73.9C4.23309 74.3302 4.34004 74.7545 4.55 75.13C4.71959 75.5052 5.00767 75.8144 5.37 76.01V75.98ZM4.27 70.86H9.27V70.26H4.27V70.86ZM9.27 65.59V64.83L4.27 66.9V67.62L9.27 69.62V68.9L7.74 68.35V66.26L9.27 65.59ZM7.2 68.1L5.73 67.55C5.40661 67.4265 5.07157 67.3361 4.73 67.28C4.99 67.21 5.35 67.07 5.73 66.92L7.13 66.39L7.2 68.1ZM9.27 61.62H7V59.26H6.4V61.64H4.85V58.88H4.27V62.3H9.27V61.62ZM9.27 57.2H4.27V57.88H9.27V57.2ZM9.27 52.04H4.27V52.68H8.27L4.27 55.35V56.02H9.27V55.38H5.35L9.35 52.74L9.27 52.04ZM9.27 47.49V46.73L4.27 48.8V49.53L9.27 51.47V50.75L7.77 50.26V48.13L9.27 47.49ZM7.2 50.01L5.73 49.46C5.40383 49.3402 5.06968 49.2432 4.73 49.17C5.07034 49.0704 5.4043 48.9502 5.73 48.81L7.13 48.29L7.2 50.01ZM9.3 42.26H4.3V42.91H8.3L4.3 45.58V46.26H9.3V45.61H5.35L9.35 42.95L9.3 42.26ZM5.37 41.03C5.79872 41.2419 6.27187 41.3482 6.75 41.34C7.21315 41.3375 7.67149 41.2458 8.1 41.07C8.50712 40.9166 8.85655 40.6406 9.1 40.28C9.33881 39.8786 9.45685 39.4168 9.44 38.95C9.45925 38.4558 9.30343 37.9706 9 37.58C8.69054 37.1888 8.2502 36.9224 7.76 36.83L7.59 37.49C7.97793 37.5352 8.33476 37.7244 8.59 38.02C8.70956 38.1562 8.80112 38.3146 8.85946 38.4862C8.91779 38.6578 8.94177 38.8392 8.93 39.02C8.92996 39.3229 8.83943 39.6189 8.67 39.87C8.50796 40.1445 8.25769 40.356 7.96 40.47C7.59952 40.5929 7.22082 40.6537 6.84 40.65C6.50018 40.6515 6.1624 40.5974 5.84 40.49C5.53639 40.394 5.27283 40.2007 5.09 39.94C4.88794 39.6467 4.7862 39.2959 4.8 38.94C4.78972 38.6387 4.88132 38.3428 5.06 38.1C5.26855 37.8526 5.54765 37.6747 5.86 37.59L5.71 36.93C5.27486 37.0317 4.89123 37.2875 4.63 37.65C4.36049 38.0211 4.22317 38.4717 4.24 38.93C4.23097 39.3572 4.33812 39.7789 4.55 40.15C4.73154 40.5094 5.01733 40.8057 5.37 41V41.03ZM9.3 35.23H4.3V35.91H9.3V35.23ZM9.3 30.23H8.71V33.34H7V30.54H6.4V33.34H4.85V30.34H4.27V34.01H9.27L9.3 30.23ZM9.3 28.62H7.06V27.84C7.05003 27.7202 7.05003 27.5998 7.06 27.48C7.08753 27.3659 7.13492 27.2577 7.2 27.16C7.28867 27.0306 7.40056 26.9187 7.53 26.83C7.7 26.7 7.93 26.54 8.23 26.34L9.23 25.67V24.82L7.87 25.71C7.61807 25.8595 7.39184 26.0486 7.2 26.27C7.09102 26.3855 7.00605 26.5214 6.95 26.67C6.91927 26.2654 6.7497 25.8839 6.47 25.59C6.35228 25.4733 6.21129 25.3827 6.05622 25.3241C5.90115 25.2655 5.73548 25.2403 5.57 25.25C5.3029 25.2438 5.03947 25.3132 4.81 25.45C4.5891 25.579 4.41954 25.7804 4.33 26.02C4.23055 26.3436 4.1866 26.6817 4.2 27.02V29.26H9.2L9.3 28.62ZM6.49 28.62H4.82V27.02C4.80022 26.7221 4.88123 26.4262 5.05 26.18C5.12592 26.1007 5.21772 26.0384 5.31939 25.9971C5.42105 25.9557 5.53031 25.9362 5.64 25.94C5.80269 25.9379 5.96249 25.983 6.1 26.07C6.23092 26.173 6.33404 26.3071 6.4 26.46C6.47365 26.6925 6.50415 26.9365 6.49 27.18V28.62ZM9.3 24.04L7.77 23.48V21.36L9.3 20.77V20L4.3 22.08V22.8L9.3 24.8V24.04ZM7.23 23.26L5.76 22.7C5.43366 22.5833 5.09949 22.4897 4.76 22.42C5.099 22.3202 5.43275 22.2034 5.76 22.07L7.16 21.53L7.23 23.26ZM18.16 141.76V200.82H19.87V141.79L18.16 141.76Z" fill="#3E3E3D"/>
</svg>
