<svg width="31" height="220" viewBox="0 0 31 220" fill="none" xmlns="http://www.w3.org/2000/svg">
<path d="M16.3936 207.7C17.4173 207.686 18.4114 208.041 19.1913 208.7C19.5331 209.046 19.7991 209.458 19.9723 209.911C20.1456 210.363 20.2223 210.847 20.1978 211.33C20.2137 211.852 20.1032 212.369 19.8755 212.839C19.6478 213.309 19.3096 213.718 18.8895 214.03C17.8595 214.743 16.6203 215.095 15.367 215.03H13.3542C12.1059 215.106 10.8694 214.753 9.85187 214.03C9.42857 213.697 9.09104 213.268 8.86708 212.78C8.64311 212.291 8.5391 211.757 8.56363 211.22C8.53609 210.751 8.6118 210.282 8.78562 209.845C8.95945 209.408 9.22719 209.014 9.57005 208.69C10.3571 208.03 11.3579 207.675 12.3879 207.69V209.12C11.6734 209.107 10.9716 209.309 10.3751 209.7C10.1683 209.887 10.0073 210.119 9.90433 210.377C9.80141 210.635 9.75933 210.914 9.78135 211.19C9.76237 211.54 9.83605 211.888 9.995 212.201C10.1539 212.513 10.3926 212.778 10.6872 212.97C11.4956 213.433 12.4232 213.648 13.3542 213.59H15.4374C16.3569 213.646 17.2737 213.445 18.0843 213.01C18.3767 212.839 18.6172 212.593 18.7802 212.297C18.9432 212.001 19.0227 211.667 19.0103 211.33C19.0373 211.04 19.0019 210.747 18.9065 210.471C18.811 210.196 18.6577 209.943 18.4567 209.73C17.8648 209.326 17.162 209.113 16.4438 209.12L16.3936 207.7Z" fill="#3E3E3D"/>
<path d="M15.3872 206.25C14.3414 206.312 13.3086 205.996 12.4786 205.36C12.13 205.079 11.8515 204.722 11.6647 204.316C11.478 203.91 11.3879 203.467 11.4017 203.02C11.3808 202.579 11.4605 202.138 11.6348 201.731C11.809 201.324 12.0733 200.962 12.4081 200.67C13.218 200.04 14.2282 199.717 15.2564 199.76H16.152C17.1925 199.703 18.2197 200.015 19.0505 200.64C19.3851 200.935 19.6529 201.297 19.8364 201.702C20.0198 202.107 20.1147 202.546 20.1147 202.99C20.1147 203.435 20.0198 203.874 19.8364 204.279C19.6529 204.684 19.3851 205.046 19.0505 205.34C18.2529 205.965 17.2577 206.288 16.2426 206.25H15.3872ZM16.1923 204.88C16.8994 204.914 17.6005 204.737 18.2051 204.37C18.4391 204.227 18.6312 204.025 18.7619 203.784C18.8926 203.544 18.9573 203.274 18.9498 203C18.9498 201.79 18.0743 201.17 16.313 201.13H15.3066C14.5998 201.1 13.8995 201.277 13.2938 201.64C13.0592 201.787 12.8665 201.99 12.7343 202.232C12.6021 202.474 12.5347 202.745 12.539 203.02C12.536 203.291 12.6042 203.558 12.7365 203.795C12.8689 204.032 13.0609 204.23 13.2938 204.37C13.8991 204.735 14.5996 204.912 15.3066 204.88H16.1923Z" fill="#3E3E3D"/>
<path d="M11.5526 196.69H12.3377C12.0369 196.451 11.796 196.147 11.6336 195.8C11.4712 195.453 11.3918 195.073 11.4016 194.69C11.3687 194.271 11.4695 193.852 11.69 193.493C11.9104 193.134 12.2391 192.853 12.6294 192.69C12.2459 192.466 11.9299 192.143 11.714 191.757C11.4982 191.37 11.3902 190.933 11.4016 190.49C11.4016 188.94 12.4081 188.15 14.3102 188.12H20.0066V189.48H14.4511C13.9682 189.446 13.4866 189.562 13.0723 189.81C12.9148 189.945 12.7922 190.115 12.7151 190.307C12.638 190.498 12.6086 190.705 12.6294 190.91C12.6271 191.103 12.6695 191.293 12.7533 191.467C12.8371 191.64 12.9601 191.792 13.1126 191.91C13.466 192.182 13.8945 192.339 14.3404 192.36H20.0066V193.74H14.3807C13.2133 193.74 12.6294 194.23 12.6294 195.16C12.6175 195.48 12.7088 195.795 12.8899 196.06C13.0709 196.324 13.3323 196.524 13.6358 196.63H19.9663V198H11.5123L11.5526 196.69Z" fill="#3E3E3D"/>
<path d="M16.1922 180C17.2498 179.918 18.3066 180.17 19.2114 180.72C19.5312 180.946 19.7903 181.247 19.9658 181.596C20.1413 181.944 20.2278 182.331 20.2179 182.72C20.2303 183.104 20.1445 183.484 19.9685 183.825C19.7924 184.166 19.5319 184.457 19.2114 184.67H23.2371V186H11.5325V184.76L12.4786 184.69C12.1294 184.488 11.8427 184.195 11.6493 183.843C11.4559 183.49 11.3632 183.092 11.3815 182.69C11.3595 182.29 11.4403 181.891 11.6164 181.531C11.7924 181.171 12.058 180.861 12.3879 180.63C13.2633 180.117 14.2711 179.87 15.2864 179.92L16.1922 180ZM15.3971 181.37C14.6727 181.319 13.9483 181.468 13.3038 181.8C13.0767 181.954 12.8946 182.164 12.7761 182.41C12.6576 182.656 12.607 182.929 12.6294 183.2C12.6288 183.521 12.7241 183.835 12.9033 184.102C13.0824 184.369 13.3374 184.578 13.6358 184.7H18.0339C18.3339 184.577 18.5901 184.367 18.7694 184.098C18.9487 183.829 19.043 183.513 19.0403 183.19C19.0601 182.922 19.0082 182.653 18.8898 182.41C18.7714 182.168 18.5908 181.961 18.3661 181.81C17.7461 181.49 17.0515 181.338 16.3532 181.37H15.3971Z" fill="#3E3E3D"/>
<path d="M20.0067 173.87C19.7111 173.984 19.3976 174.045 19.0807 174.05C19.4083 174.241 19.6807 174.512 19.8712 174.838C20.0617 175.164 20.1639 175.534 20.1677 175.91C20.1959 176.238 20.1512 176.568 20.0368 176.876C19.9224 177.184 19.741 177.464 19.5057 177.695C19.2704 177.926 18.9868 178.102 18.6751 178.212C18.3633 178.322 18.0311 178.362 17.7019 178.33C17.3233 178.344 16.9462 178.274 16.5981 178.126C16.25 177.977 15.9395 177.753 15.6891 177.47C15.1513 176.792 14.8763 175.944 14.9141 175.08V174.08H14.0184C13.8258 174.061 13.6314 174.081 13.4464 174.137C13.2615 174.194 13.0898 174.287 12.9416 174.41C12.7068 174.689 12.5913 175.048 12.6196 175.41C12.6107 175.593 12.639 175.776 12.703 175.948C12.767 176.12 12.8653 176.277 12.992 176.41C13.1106 176.539 13.2555 176.64 13.417 176.707C13.5786 176.774 13.7528 176.806 13.9279 176.8V178.18C13.4868 178.176 13.0566 178.044 12.69 177.8C12.3029 177.548 11.9847 177.205 11.764 176.8C11.5397 176.357 11.4259 175.867 11.432 175.37C11.4 175.011 11.4405 174.649 11.5511 174.306C11.6617 173.963 11.8402 173.644 12.0761 173.37C12.3257 173.134 12.6215 172.951 12.9452 172.832C13.2688 172.713 13.6136 172.662 13.9581 172.68H18.2152C18.7926 172.686 19.3671 172.598 19.9161 172.42H20.0369L20.0067 173.87ZM18.9097 175.7C18.9111 175.348 18.8135 175.001 18.6279 174.7C18.4619 174.418 18.2172 174.188 17.9233 174.04H15.9105V174.81C15.889 175.359 16.0403 175.901 16.3433 176.36C16.4833 176.542 16.665 176.688 16.8734 176.785C17.0818 176.883 17.3107 176.929 17.5409 176.92C17.9006 176.948 18.2583 176.845 18.5473 176.63C18.6702 176.51 18.7661 176.364 18.8285 176.204C18.891 176.044 18.9187 175.872 18.9097 175.7Z" fill="#3E3E3D"/>
<path d="M11.5527 169.29H12.4686C12.1414 169.068 11.8734 168.769 11.6876 168.421C11.5018 168.073 11.4038 167.685 11.4018 167.29C11.4018 165.8 12.4082 165.05 14.421 165.03H20.0369V166.4H14.4815C13.9895 166.356 13.496 166.468 13.0724 166.72C12.9316 166.845 12.8212 167 12.7497 167.173C12.6782 167.346 12.6474 167.534 12.6598 167.72C12.6572 168.055 12.779 168.379 13.0019 168.63C13.2478 168.914 13.5537 169.139 13.8977 169.29H20.0369V170.66H11.583L11.5527 169.29ZM8.26173 165.38C8.74774 165.364 9.2254 165.509 9.62037 165.79C9.84838 165.959 10.0157 166.196 10.0973 166.466C10.1789 166.736 10.1705 167.025 10.0733 167.29C9.98468 167.471 9.87664 167.642 9.75121 167.8C9.63006 167.934 9.53158 168.086 9.45943 168.25C9.42527 168.354 9.40823 168.462 9.40906 168.57C9.40959 168.658 9.43311 168.743 9.47725 168.819C9.52139 168.894 9.58461 168.957 9.66067 169C9.84291 169.127 10.0623 169.191 10.2846 169.18V170.07C9.78559 170.091 9.29375 169.947 8.88571 169.66C8.72447 169.547 8.59232 169.397 8.4997 169.223C8.40708 169.05 8.35654 168.857 8.35227 168.66C8.34907 168.515 8.38018 168.372 8.44294 168.24C8.52405 168.074 8.62175 167.917 8.73472 167.77C8.84027 167.624 8.9345 167.471 9.01655 167.31C9.07408 167.189 9.10175 167.055 9.09714 166.92C9.09838 166.832 9.07564 166.744 9.03141 166.667C8.98718 166.589 8.92307 166.525 8.84553 166.48C8.66329 166.354 8.44374 166.29 8.22144 166.3L8.26173 165.38Z" fill="#3E3E3D"/>
<path d="M8.02002 161.36V159.62L10.3147 161.7V162.86L8.02002 161.36ZM20.0065 161.36V162.74H11.5526V161.36H20.0065Z" fill="#3E3E3D"/>
<path d="M20.0066 154.84C19.7083 154.945 19.3964 155.005 19.0806 155.02C19.4077 155.21 19.6791 155.482 19.868 155.808C20.0569 156.134 20.1567 156.504 20.1576 156.88C20.1892 157.208 20.1471 157.538 20.0346 157.847C19.9221 158.157 19.7418 158.437 19.5068 158.669C19.2718 158.9 18.988 159.077 18.6758 159.186C18.3637 159.296 18.031 159.335 17.7019 159.3C17.3225 159.312 16.9452 159.241 16.5972 159.09C16.2491 158.94 15.9389 158.714 15.689 158.43C15.1511 157.756 14.8759 156.911 14.9141 156.05V155.05H14.0183C13.8249 155.03 13.6294 155.05 13.4441 155.109C13.2588 155.167 13.0877 155.263 12.9415 155.39C12.7283 155.683 12.6177 156.038 12.6268 156.399C12.6359 156.76 12.7642 157.109 12.9919 157.39C13.1105 157.519 13.2554 157.62 13.417 157.687C13.5785 157.754 13.7527 157.786 13.9278 157.78V159.15C13.486 159.151 13.0544 159.019 12.6899 158.77C12.2996 158.522 11.9806 158.178 11.764 157.77C11.5388 157.324 11.425 156.83 11.4319 156.33C11.4005 155.971 11.4413 155.61 11.5519 155.266C11.6625 154.923 11.8406 154.605 12.076 154.33C12.3261 154.095 12.6222 153.913 12.9459 153.796C13.2697 153.679 13.6142 153.63 13.958 153.65H18.2151C18.7931 153.653 19.3676 153.561 19.9161 153.38H20.0368L20.0066 154.84ZM18.9096 156.67C18.9137 156.317 18.8159 155.97 18.6278 155.67C18.4624 155.385 18.2178 155.152 17.9232 155H15.9104V155.78C15.889 156.326 16.0404 156.865 16.3432 157.32C16.4809 157.505 16.662 157.654 16.8707 157.753C17.0795 157.853 17.3095 157.9 17.5408 157.89C17.9001 157.914 18.2562 157.811 18.5472 157.6C18.6701 157.48 18.766 157.334 18.8284 157.174C18.8909 157.014 18.9186 156.842 18.9096 156.67Z" fill="#3E3E3D"/>
<path d="M15.3972 148.201C14.3387 148.276 13.2829 148.021 12.3779 147.471C12.0477 147.236 11.7825 146.922 11.6066 146.559C11.4307 146.195 11.3498 145.793 11.3715 145.391C11.3605 145.017 11.4476 144.648 11.6241 144.318C11.8005 143.988 12.0603 143.71 12.3779 143.51H8V142.141H19.9966V143.391L19.0908 143.461C19.416 143.667 19.6806 143.955 19.8574 144.296C20.0341 144.636 20.1168 145.018 20.0972 145.4C20.108 145.79 20.0219 146.177 19.8463 146.526C19.6707 146.875 19.4112 147.175 19.0908 147.4C18.2339 147.944 17.228 148.21 16.2124 148.161L15.3972 148.201ZM16.1822 146.821C16.9008 146.868 17.6195 146.727 18.2655 146.411C18.4917 146.264 18.6738 146.059 18.7925 145.818C18.9112 145.577 18.962 145.308 18.9398 145.04C18.9438 144.715 18.8502 144.396 18.671 144.123C18.4917 143.851 18.235 143.637 17.9334 143.51H13.6661C13.3669 143.638 13.112 143.85 12.9331 144.12C12.7541 144.39 12.659 144.707 12.6597 145.031C12.6375 145.297 12.6874 145.564 12.8042 145.805C12.921 146.046 13.1004 146.252 13.324 146.4C13.9449 146.717 14.6401 146.862 15.3368 146.821H16.1822Z" fill="#3E3E3D"/>
<path d="M20.1575 137.001C20.1865 137.446 20.1177 137.892 19.9561 138.308C19.7945 138.724 19.5438 139.1 19.2215 139.411C18.4397 140.023 17.4573 140.326 16.4639 140.261H15.4575C14.4068 140.323 13.3653 140.034 12.4986 139.441C12.1448 139.177 11.8616 138.832 11.6739 138.434C11.4861 138.036 11.3995 137.599 11.4218 137.161C11.3907 136.745 11.4603 136.329 11.625 135.946C11.7896 135.563 12.0444 135.225 12.3679 134.961C13.2401 134.401 14.2711 134.138 15.3065 134.211H16.2123V138.901H16.4136C17.1241 138.972 17.8373 138.792 18.4264 138.391C18.6345 138.21 18.7981 137.985 18.9046 137.732C19.011 137.478 19.0574 137.204 19.0403 136.931C19.0517 136.56 18.9723 136.193 18.8089 135.861C18.6363 135.523 18.3885 135.229 18.0843 135.001L18.9598 134.281C19.3718 134.599 19.6973 135.014 19.9064 135.489C20.1156 135.964 20.2019 136.484 20.1575 137.001ZM12.5893 137.161C12.57 137.403 12.6135 137.646 12.7157 137.866C12.8179 138.087 12.9753 138.278 13.1729 138.421C13.7281 138.742 14.3622 138.905 15.0047 138.891V135.601H14.8235C14.2209 135.584 13.6254 135.732 13.1025 136.031C12.9295 136.166 12.7922 136.342 12.7028 136.542C12.6133 136.743 12.5744 136.962 12.5893 137.181V137.161Z" fill="#3E3E3D"/>
<path d="M17.1283 123.82C16.8917 123.804 16.6542 123.837 16.4308 123.916C16.2073 123.995 16.0028 124.119 15.83 124.28C15.4261 124.766 15.1248 125.327 14.9443 125.93C14.7338 126.579 14.4323 127.195 14.0486 127.76C13.7629 128.152 13.3912 128.473 12.9617 128.7C12.3746 128.986 11.7127 129.083 11.0674 128.98C10.4222 128.876 9.82511 128.576 9.35867 128.12C9.06254 127.806 8.8326 127.437 8.68224 127.033C8.53188 126.63 8.46414 126.2 8.4831 125.77C8.46922 125.152 8.62217 124.541 8.92598 124C9.21934 123.497 9.64798 123.085 10.1639 122.81C10.7037 122.529 11.3054 122.385 11.915 122.39V123.82C11.3284 123.785 10.7488 123.962 10.2846 124.32C10.0881 124.506 9.93484 124.732 9.83572 124.982C9.7366 125.233 9.69407 125.502 9.71102 125.77C9.69563 126.015 9.73054 126.26 9.8136 126.49C9.89666 126.72 10.0261 126.931 10.1941 127.11C10.3782 127.274 10.593 127.4 10.8262 127.48C11.0593 127.561 11.3063 127.595 11.5527 127.58C11.7789 127.585 12.0034 127.542 12.2116 127.454C12.4198 127.366 12.6068 127.235 12.7604 127.07C13.153 126.607 13.4475 126.07 13.626 125.49C13.8683 124.59 14.3397 123.767 14.9947 123.1C15.5858 122.603 16.3443 122.346 17.1182 122.38C17.5308 122.363 17.9421 122.435 18.3242 122.59C18.7063 122.746 19.0502 122.981 19.3323 123.28C19.9127 123.95 20.2086 124.818 20.1577 125.7C20.1661 126.333 20.0174 126.958 19.7248 127.52C19.4553 128.065 19.0323 128.52 18.5071 128.83C17.9676 129.155 17.3464 129.322 16.7157 129.31V127.88C17.0139 127.915 17.3161 127.882 17.6001 127.785C17.884 127.688 18.1425 127.53 18.3567 127.321C18.571 127.112 18.7355 126.858 18.8381 126.577C18.9407 126.297 18.9789 125.997 18.9499 125.7C18.9685 125.445 18.9353 125.189 18.8523 124.947C18.7693 124.705 18.6383 124.481 18.4668 124.29C18.2858 124.129 18.0744 124.004 17.8447 123.923C17.615 123.842 17.3716 123.807 17.1283 123.82Z" fill="#3E3E3D"/>
<path d="M20.1574 117.71C20.1863 118.156 20.1175 118.602 19.9559 119.018C19.7943 119.434 19.5437 119.81 19.2214 120.12C18.4396 120.733 17.4572 121.036 16.4638 120.97H15.4574C14.4067 121.033 13.3651 120.744 12.4984 120.15C12.1453 119.887 11.8627 119.541 11.675 119.143C11.4872 118.746 11.4003 118.309 11.4216 117.87C11.3897 117.454 11.459 117.036 11.6236 116.651C11.7882 116.266 12.0435 115.927 12.3677 115.66C13.2434 115.11 14.2726 114.851 15.3064 114.92H16.2122V119.61H16.4134C17.1232 119.673 17.8333 119.493 18.4263 119.1C18.6352 118.919 18.7992 118.691 18.9056 118.437C19.0121 118.182 19.0581 117.906 19.0402 117.63C19.0516 117.264 18.9721 116.9 18.8087 116.57C18.634 116.231 18.3867 115.934 18.0841 115.7L18.9597 114.99C19.3731 115.308 19.6996 115.723 19.9089 116.198C20.1182 116.674 20.2037 117.194 20.1574 117.71ZM12.5891 117.87C12.5699 118.113 12.6133 118.356 12.7155 118.576C12.8177 118.797 12.9752 118.988 13.1728 119.13C13.728 119.452 14.362 119.615 15.0045 119.6V116.29H14.8233C14.2208 116.274 13.6252 116.422 13.1024 116.72C12.9287 116.856 12.7909 117.031 12.7014 117.232C12.6119 117.432 12.5734 117.652 12.5891 117.87Z" fill="#3E3E3D"/>
<path d="M15.3972 113.551C14.34 113.627 13.2849 113.376 12.3779 112.831C12.0456 112.596 11.7789 112.28 11.6028 111.915C11.4268 111.549 11.3471 111.145 11.3715 110.741C11.3566 110.348 11.4512 109.959 11.6448 109.617C11.8384 109.274 12.1235 108.992 12.4686 108.801L11.5225 108.731V107.491H20.0569C20.9318 107.431 21.7954 107.715 22.4622 108.281C22.7502 108.574 22.9733 108.924 23.1172 109.308C23.261 109.692 23.3225 110.101 23.2976 110.511C23.2852 110.989 23.1828 111.46 22.9957 111.901C22.8392 112.343 22.5767 112.741 22.2308 113.061L21.2244 112.511C21.4861 112.268 21.6958 111.976 21.8411 111.651C21.9864 111.326 22.0641 110.976 22.0697 110.621C22.0697 109.481 21.4457 108.891 20.1877 108.861H19.0908C19.4113 109.059 19.6733 109.339 19.85 109.671C20.0267 110.003 20.112 110.375 20.0972 110.751C20.1089 111.141 20.0232 111.527 19.8475 111.876C19.6719 112.225 19.4118 112.526 19.0908 112.751C18.2475 113.292 17.2561 113.561 16.2527 113.521L15.3972 113.551ZM16.1822 112.171C16.9008 112.218 17.6195 112.077 18.2655 111.761C18.491 111.613 18.6724 111.408 18.791 111.167C18.9096 110.926 18.9609 110.658 18.9398 110.391C18.9451 110.065 18.8521 109.745 18.6727 109.472C18.4933 109.199 18.2358 108.986 17.9334 108.861H13.7165C13.4173 108.988 13.1623 109.2 12.9833 109.47C12.8044 109.74 12.7094 110.057 12.7101 110.381C12.6879 110.647 12.7378 110.914 12.8546 111.155C12.9714 111.396 13.1508 111.602 13.3744 111.751C13.9974 112.061 14.691 112.206 15.3872 112.171H16.1822Z" fill="#3E3E3D"/>
<path d="M19.2619 101.161C19.5634 101.397 19.8023 101.702 19.9584 102.051C20.1145 102.399 20.1829 102.78 20.1577 103.161C20.1795 103.489 20.1193 103.818 19.9824 104.118C19.8454 104.418 19.6359 104.68 19.3726 104.881C18.6815 105.311 17.8724 105.518 17.0578 105.471H11.5527V104.101H16.9572C18.2756 104.101 18.97 103.711 18.97 102.921C18.9915 102.552 18.8937 102.186 18.6909 101.876C18.4881 101.567 18.1909 101.33 17.8429 101.201H11.583V99.8305H20.0369V101.131L19.2619 101.161Z" fill="#3E3E3D"/>
<path d="M12.8107 94.2905C12.7946 94.5002 12.7946 94.7108 12.8107 94.9205C12.8081 95.2594 12.9211 95.5892 13.1313 95.8561C13.3414 96.1231 13.6364 96.3114 13.9681 96.3905H20.0066V97.7605H11.5527V96.4305H12.4182C12.1166 96.2951 11.8609 96.0756 11.6823 95.7987C11.5037 95.5218 11.4097 95.1994 11.4118 94.8705C11.4024 94.6809 11.4405 94.4919 11.5225 94.3205L12.8107 94.2905Z" fill="#3E3E3D"/>
<path d="M15.3872 93.3705C14.3421 93.4263 13.311 93.1109 12.4786 92.4805C12.1282 92.2006 11.8483 91.8434 11.6614 91.4371C11.4744 91.0309 11.3855 90.5869 11.4017 90.1405C11.3785 89.6985 11.4571 89.2572 11.6315 88.8499C11.8059 88.4427 12.0715 88.0804 12.4081 87.7905C13.2154 87.1548 14.2274 86.8315 15.2563 86.8805H16.142C17.1858 86.8218 18.2166 87.1337 19.0504 87.7605C19.3808 88.0577 19.6448 88.4203 19.8255 88.8251C20.0062 89.2298 20.0996 89.6677 20.0996 90.1105C20.0996 90.5533 20.0062 90.9912 19.8255 91.3959C19.6448 91.8007 19.3808 92.1633 19.0504 92.4605C18.252 93.0839 17.2574 93.4063 16.2426 93.3705H15.3872ZM16.1821 92.0005C16.8892 92.0329 17.5899 91.8554 18.195 91.4905C18.4283 91.3462 18.6198 91.144 18.7504 90.9037C18.881 90.6634 18.9462 90.3935 18.9397 90.1205C18.9397 88.9105 18.0641 88.2905 16.3029 88.2505H15.2965C14.5895 88.2187 13.889 88.3962 13.2837 88.7605C13.0484 88.9059 12.8551 89.1095 12.7228 89.3514C12.5905 89.5933 12.5236 89.8652 12.5288 90.1405C12.5259 90.4113 12.594 90.6781 12.7264 90.9148C12.8587 91.1515 13.0507 91.3499 13.2837 91.4905C13.889 91.8548 14.5895 92.0323 15.2965 92.0005H16.1821Z" fill="#3E3E3D"/>
<path d="M17.8429 81.0005C17.6991 80.998 17.5564 81.0262 17.4244 81.0831C17.2925 81.14 17.1744 81.2244 17.078 81.3305C16.7629 81.7206 16.5084 82.1554 16.3232 82.6205C16.1206 83.1679 15.8573 83.6911 15.5382 84.1805C15.3447 84.4601 15.0901 84.6925 14.7934 84.8605C14.4827 85.0199 14.1366 85.099 13.787 85.0905C13.4643 85.095 13.1445 85.0304 12.8492 84.901C12.554 84.7716 12.2903 84.5804 12.0761 84.3405C11.6063 83.8127 11.3609 83.1244 11.3917 82.4205C11.3727 82.0568 11.426 81.693 11.5486 81.3498C11.6712 81.0066 11.8608 80.6908 12.1063 80.4205C12.3453 80.1775 12.6323 79.9863 12.9493 79.8589C13.2662 79.7315 13.6063 79.6708 13.9481 79.6805V81.1005C13.7631 81.0924 13.5784 81.1219 13.4053 81.1872C13.2322 81.2526 13.0745 81.3524 12.9416 81.4805C12.8054 81.6081 12.6989 81.7637 12.6293 81.9364C12.5598 82.1091 12.529 82.2948 12.539 82.4805C12.5208 82.6595 12.5391 82.8402 12.5927 83.012C12.6463 83.1838 12.7342 83.3432 12.8511 83.4805C12.9583 83.5959 13.0893 83.6869 13.2353 83.7473C13.3812 83.8078 13.5385 83.8361 13.6964 83.8305C13.9456 83.8387 14.188 83.7488 14.3708 83.5805C14.6598 83.2106 14.8905 82.7993 15.0551 82.3605C15.299 81.5939 15.7 80.8857 16.2326 80.2805C16.4256 80.0981 16.6531 79.9556 16.9018 79.8612C17.1506 79.7668 17.4157 79.7224 17.6818 79.7305C18.0157 79.7162 18.3484 79.7771 18.6552 79.9087C18.962 80.0403 19.2347 80.2392 19.4531 80.4905C19.9128 81.0538 20.1459 81.7664 20.1073 82.4905C20.1445 83.2711 19.8737 84.0353 19.3525 84.6205C19.1096 84.8849 18.8121 85.0941 18.4804 85.2339C18.1486 85.3737 17.7904 85.4407 17.4302 85.4305V84.0005C17.6371 84.0151 17.8447 83.9843 18.0381 83.91C18.2316 83.8358 18.4062 83.72 18.5494 83.571C18.6927 83.422 18.801 83.2434 18.8668 83.048C18.9325 82.8526 18.954 82.6451 18.9298 82.4405C18.9453 82.0829 18.839 81.7306 18.6279 81.4405C18.5373 81.3147 18.42 81.2101 18.2844 81.1341C18.1488 81.0581 17.9981 81.0125 17.8429 81.0005Z" fill="#3E3E3D"/>
<path d="M20.0067 74.0005H8.63412V70.8205C8.57052 69.9758 8.84135 69.1397 9.38894 68.4905C9.694 68.2125 10.0533 67.9998 10.4446 67.8656C10.8359 67.7314 11.2508 67.6786 11.6635 67.7105C12.1631 67.6989 12.6545 67.8384 13.0725 68.1105C13.4805 68.3743 13.8077 68.7444 14.0184 69.1805C14.1803 68.6561 14.5412 68.2149 15.0249 67.9505C15.5509 67.6307 16.1596 67.4708 16.776 67.4905C17.2129 67.4662 17.6504 67.5279 18.0632 67.672C18.4759 67.8162 18.8559 68.0399 19.1814 68.3305C19.4862 68.6446 19.7216 69.0186 19.8724 69.4285C20.0232 69.8384 20.0861 70.275 20.057 70.7105L20.0067 74.0005ZM13.4851 72.5805V70.7905C13.4929 70.5678 13.4519 70.346 13.365 70.1406C13.2781 69.9351 13.1475 69.7508 12.9819 69.6005C12.5887 69.3204 12.117 69.1698 11.6332 69.1698C11.1495 69.1698 10.6779 69.3204 10.2847 69.6005C10.1317 69.7709 10.0153 69.9706 9.94264 70.1872C9.86996 70.4039 9.8425 70.6329 9.86193 70.8605V72.6605L13.4851 72.5805ZM14.6827 72.5805H18.7789V70.6805C18.7901 70.4413 18.748 70.2026 18.6558 69.9814C18.5636 69.7601 18.4235 69.5618 18.2455 69.4005C17.8241 69.0589 17.2887 68.8876 16.7459 68.9205C15.3671 68.9205 14.6827 69.5005 14.6827 70.6405V72.5805Z" fill="#3E3E3D"/>
<path d="M15.3873 65.8505C14.3422 65.9063 13.3111 65.5908 12.4787 64.9605C12.1444 64.6668 11.8766 64.3058 11.6932 63.9016C11.5098 63.4973 11.415 63.0589 11.415 62.6155C11.415 62.1721 11.5098 61.7337 11.6932 61.3294C11.8766 60.9251 12.1444 60.5642 12.4787 60.2705C13.2864 59.6344 14.2971 59.3079 15.3268 59.3505H16.2125C17.2576 59.2947 18.2886 59.6102 19.121 60.2405C19.4514 60.5377 19.7154 60.9003 19.8961 61.3051C20.0768 61.7098 20.1702 62.1477 20.1702 62.5905C20.1702 63.0333 20.0768 63.4712 19.8961 63.8759C19.7154 64.2807 19.4514 64.6433 19.121 64.9405C18.3206 65.5601 17.3273 65.882 16.3131 65.8505H15.3873ZM16.1823 64.4805C16.8888 64.5082 17.5882 64.331 18.1951 63.9705C18.4284 63.8262 18.6199 63.624 18.7505 63.3837C18.8811 63.1434 18.9463 62.8735 18.9398 62.6005C18.9398 61.3905 18.0643 60.7605 16.303 60.7305H15.2966C14.5896 60.6987 13.8891 60.8762 13.2838 61.2405C13.0493 61.3843 12.8565 61.5862 12.7242 61.8263C12.5918 62.0665 12.5245 62.3367 12.529 62.6105C12.5253 62.8828 12.5929 63.1513 12.7253 63.3897C12.8576 63.6282 13.0501 63.8283 13.2838 63.9705C13.8891 64.3348 14.5896 64.5123 15.2966 64.4805H16.1823Z" fill="#3E3E3D"/>
<path d="M20.0068 56.1005V57.4805H8.01025V56.1005H20.0068Z" fill="#3E3E3D"/>
<path d="M8.02002 52.4105V50.6705L10.3147 52.7505V53.9105L8.02002 52.4105ZM20.0065 52.4605V53.8405H11.5526V52.4605H20.0065Z" fill="#3E3E3D"/>
<path d="M17.9033 47.8305L11.5527 46.2405V44.8405L20.0067 47.3405V48.3405L11.5527 50.8605V49.4605L17.9033 47.8305Z" fill="#3E3E3D"/>
<path d="M20.0067 39.2105C19.7085 39.3146 19.3965 39.3753 19.0808 39.3905C19.4071 39.5812 19.678 39.8529 19.8668 40.179C20.0556 40.5051 20.1559 40.8743 20.1577 41.2505C20.1893 41.5778 20.1473 41.9081 20.0347 42.2173C19.9222 42.5266 19.7419 42.8071 19.507 43.0387C19.272 43.2702 18.9881 43.4471 18.676 43.5563C18.3638 43.6656 18.0312 43.7046 17.702 43.6705C17.3226 43.6824 16.9453 43.6105 16.5973 43.4601C16.2492 43.3097 15.939 43.0844 15.6891 42.8005C15.1471 42.1277 14.8715 41.2812 14.9142 40.4205V39.4205H14.0185C13.747 39.4284 13.4834 39.5136 13.2592 39.6659C13.035 39.8182 12.8595 40.0313 12.7536 40.2798C12.6476 40.5283 12.6156 40.8018 12.6614 41.0678C12.7072 41.3338 12.8289 41.5812 13.012 41.7805C13.1306 41.9086 13.2757 42.0097 13.4372 42.077C13.5988 42.1443 13.773 42.1762 13.9481 42.1705V43.5405C13.5062 43.5412 13.0746 43.4087 12.7102 43.1605C12.3175 42.915 11.9978 42.5698 11.7842 42.1605C11.5591 41.7138 11.4453 41.22 11.4522 40.7205C11.4208 40.3613 11.4615 39.9996 11.5721 39.6562C11.6826 39.3129 11.8609 38.9948 12.0963 38.7205C12.3459 38.4874 12.6404 38.307 12.9622 38.1901C13.2839 38.0733 13.6261 38.0224 13.9682 38.0405H18.2354C18.8101 38.0435 19.3813 37.9523 19.9261 37.7705H20.057L20.0067 39.2105ZM18.8997 41.0405C18.9061 40.687 18.8081 40.3393 18.6179 40.0405C18.4561 39.7554 18.2149 39.5228 17.9234 39.3705H15.9105V40.1505C15.8954 40.6968 16.0501 41.2346 16.3534 41.6905C16.4911 41.8753 16.6722 42.0239 16.881 42.1233C17.0897 42.2226 17.3197 42.2697 17.551 42.2605C17.9103 42.2837 18.2664 42.1811 18.5574 41.9705C18.682 41.8433 18.7773 41.6906 18.8364 41.523C18.8955 41.3555 18.9171 41.1772 18.8997 41.0005V41.0405Z" fill="#3E3E3D"/>
<path d="M12.8105 32.4505C12.7893 32.6566 12.7893 32.8644 12.8105 33.0705C12.8056 33.4111 12.9176 33.7432 13.128 34.0122C13.3383 34.2812 13.6345 34.471 13.9679 34.5505H20.0064V35.9205H11.5525V34.5905H12.418C12.1148 34.4572 11.8577 34.2382 11.6788 33.9608C11.4998 33.6835 11.4069 33.3599 11.4116 33.0305C11.4031 32.8442 11.4411 32.6587 11.5223 32.4905L12.8105 32.4505Z" fill="#3E3E3D"/>
<path d="M17.1283 22.3205C16.8917 22.3041 16.6542 22.3366 16.4308 22.4157C16.2074 22.4949 16.0028 22.6191 15.83 22.7805C15.4223 23.2631 15.1206 23.8252 14.9444 24.4305C14.7352 25.0817 14.4299 25.6984 14.0386 26.2605C13.7565 26.6514 13.3882 26.973 12.9618 27.2005C12.5354 27.4176 12.062 27.5275 11.583 27.5205C11.1683 27.531 10.7559 27.4565 10.3715 27.3017C9.9871 27.1469 9.63896 26.915 9.34874 26.6205C8.75962 25.9853 8.44821 25.1436 8.48312 24.2805C8.46675 23.6616 8.61987 23.0498 8.926 22.5105C9.21205 21.9991 9.64231 21.582 10.1639 21.3105C10.7038 21.029 11.3054 20.8847 11.915 20.8905V22.3205C11.3285 22.2845 10.7488 22.4623 10.2846 22.8205C10.0855 23.0064 9.92998 23.2336 9.8291 23.4859C9.72822 23.7382 9.68448 24.0095 9.70097 24.2805C9.68589 24.524 9.72185 24.768 9.80674 24.997C9.89164 25.226 10.0236 25.4349 10.1941 25.6105C10.3769 25.7759 10.5916 25.9028 10.8251 25.9836C11.0586 26.0644 11.3061 26.0973 11.5527 26.0805C11.7787 26.0839 12.0029 26.0402 12.2109 25.9524C12.4189 25.8646 12.606 25.7345 12.7604 25.5705C13.1492 25.1045 13.4433 24.5679 13.626 23.9905C13.8708 23.0914 14.3418 22.2689 14.9947 21.6005C15.5832 21.0984 16.3436 20.8405 17.1183 20.8805C17.5308 20.8633 17.9421 20.9349 18.3242 21.0902C18.7063 21.2455 19.0502 21.481 19.3323 21.7805C19.9142 22.4535 20.2102 23.3248 20.1577 24.2105C20.1649 24.84 20.0162 25.4615 19.7249 26.0205C19.4554 26.5653 19.0323 27.0204 18.5071 27.3305C17.9644 27.6567 17.3397 27.8231 16.7056 27.8105V26.3905C17.0051 26.4089 17.3053 26.366 17.5874 26.2645C17.8696 26.163 18.1278 26.0051 18.3461 25.8005C18.5484 25.5893 18.7053 25.3395 18.8074 25.0661C18.9095 24.7928 18.9545 24.5017 18.9398 24.2105C18.9579 23.953 18.9236 23.6946 18.8388 23.4506C18.7541 23.2066 18.6207 22.9821 18.4467 22.7905C18.2696 22.6287 18.0618 22.5037 17.8354 22.423C17.6089 22.3422 17.3686 22.3074 17.1283 22.3205Z" fill="#3E3E3D"/>
<path d="M19.2518 19.1205C19.02 19.1296 18.7934 19.051 18.6177 18.9005C18.533 18.8136 18.4677 18.7098 18.4261 18.5961C18.3845 18.4824 18.3675 18.3612 18.3762 18.2405C18.3624 18.1216 18.3753 18.0011 18.414 17.8877C18.4527 17.7744 18.5162 17.671 18.5999 17.5849C18.6836 17.4988 18.7855 17.4323 18.8982 17.39C19.0109 17.3478 19.1317 17.3308 19.2518 17.3405C19.3613 17.3367 19.4704 17.3551 19.5725 17.3946C19.6746 17.4342 19.7675 17.494 19.8455 17.5705C19.931 17.6589 19.9968 17.7644 20.0384 17.8798C20.08 17.9953 20.0966 18.1182 20.0871 18.2405C20.0958 18.3612 20.0788 18.4824 20.0372 18.5961C19.9956 18.7098 19.9303 18.8136 19.8455 18.9005C19.6844 19.0485 19.4711 19.1275 19.2518 19.1205Z" fill="#3E3E3D"/>
<path d="M17.0275 9.57049V13.3905L20.0468 14.2705V15.7205L8.67432 12.0905V10.8705L20.0468 7.22049V8.68049L17.0275 9.57049ZM15.8299 13.0005V9.94049L10.667 11.4805L15.8299 13.0005Z" fill="#3E3E3D"/>
<path d="M19.2518 5.7805C19.0201 5.78958 18.7935 5.71096 18.6178 5.5605C18.5331 5.47356 18.4678 5.36984 18.4261 5.25611C18.3845 5.14238 18.3675 5.0212 18.3763 4.9005C18.368 4.77831 18.3851 4.65575 18.4266 4.54046C18.4682 4.42518 18.5333 4.31965 18.6178 4.2305C18.7925 4.07729 19.0189 3.99516 19.2518 4.0005C19.3614 3.99666 19.4705 4.01509 19.5726 4.05463C19.6747 4.09418 19.7676 4.15402 19.8456 4.2305C19.9301 4.31965 19.9952 4.42518 20.0367 4.54046C20.0783 4.65575 20.0954 4.77831 20.0871 4.9005C20.0959 5.0212 20.0789 5.14238 20.0372 5.25611C19.9956 5.36984 19.9303 5.47356 19.8456 5.5605C19.6844 5.70848 19.4712 5.78751 19.2518 5.7805Z" fill="#3E3E3D"/>
</svg>
